<svg width="179" height="158" viewBox="0 0 179 158" fill="none" xmlns="http://www.w3.org/2000/svg">
<g clip-path="url(#clip0)">
<path d="M167.497 158V140.203C167.497 140.203 173.953 152.82 167.497 158Z" fill="#F1F1F1"/>
<path d="M167.896 157.997L155.693 145.961C155.693 145.961 168.71 149.385 167.896 157.997Z" fill="#F1F1F1"/>
<path d="M54.5986 5.42111C55.992 5.42111 57.1215 4.20755 57.1215 2.71055C57.1215 1.21356 55.992 0 54.5986 0C53.2052 0 52.0757 1.21356 52.0757 2.71055C52.0757 4.20755 53.2052 5.42111 54.5986 5.42111Z" fill="#F1F1F1"/>
<path d="M48.1868 12.3098C49.5801 12.3098 50.7097 11.0963 50.7097 9.59926C50.7097 8.10226 49.5801 6.8887 48.1868 6.8887C46.7934 6.8887 45.6638 8.10226 45.6638 9.59926C45.6638 11.0963 46.7934 12.3098 48.1868 12.3098Z" fill="#F1F1F1"/>
<path d="M46.5838 134.584C47.9772 134.584 49.1067 133.371 49.1067 131.874C49.1067 130.377 47.9772 129.163 46.5838 129.163C45.1904 129.163 44.0609 130.377 44.0609 131.874C44.0609 133.371 45.1904 134.584 46.5838 134.584Z" fill="#F1F1F1"/>
<path d="M132.833 154.786H130.089L129.932 143.591L132.833 143.415V154.786Z" fill="#9F616A"/>
<path d="M133.536 157.647L124.683 157.647V157.524C124.684 156.542 125.047 155.601 125.693 154.907C126.339 154.213 127.215 153.822 128.129 153.821H133.536V157.647Z" fill="#2F2E41"/>
<path d="M148.542 151.39L146.026 152.568L141.718 142.373L144.312 140.966L148.542 151.39Z" fill="#9F616A"/>
<path d="M142.134 157.512L142.088 157.399C141.907 156.953 141.81 156.473 141.802 155.987C141.793 155.501 141.874 155.018 142.04 154.565C142.205 154.112 142.452 153.699 142.766 153.349C143.08 152.999 143.456 152.719 143.87 152.525L148.827 150.203L150.25 153.71L142.134 157.512Z" fill="#2F2E41"/>
<path d="M137.709 66.4174C140.993 66.4174 143.655 63.5574 143.655 60.0293C143.655 56.5013 140.993 53.6413 137.709 53.6413C134.426 53.6413 131.764 56.5013 131.764 60.0293C131.764 63.5574 134.426 66.4174 137.709 66.4174Z" fill="#9F616A"/>
<path d="M148.352 146.046L140.667 125.876L144.4 107.003L137.319 106.59L133.421 127.704L143.247 148.64L148.352 146.046Z" fill="#2F2E41"/>
<path d="M139.954 103.229L136.331 127.35L135.241 150.469L128.987 150.41L128.755 106.178L139.954 103.229Z" fill="#2F2E41"/>
<path d="M144.924 104.604L144.567 108.098L126.839 108.95L128.039 103.697L144.924 104.604Z" fill="#CBCBCB"/>
<path d="M128.066 111.2C127.896 110.97 127.771 110.707 127.697 110.425C127.623 110.143 127.601 109.848 127.634 109.558C127.667 109.267 127.753 108.986 127.887 108.731C128.022 108.476 128.202 108.253 128.417 108.073C128.508 107.998 128.603 107.931 128.704 107.872L135.657 79.7986L139.779 81.7447L131.61 108.874C131.805 109.328 131.851 109.84 131.741 110.326C131.63 110.813 131.37 111.244 131.003 111.552C130.569 111.92 130.017 112.09 129.467 112.024C128.917 111.958 128.414 111.662 128.066 111.2Z" fill="#9F616A"/>
<path d="M132.461 72.5662L133.281 70.7462C133.281 70.7462 137.319 66.9956 141.578 69.2439L142.235 71.3449L145.709 77.3717L144.924 105.209C144.924 105.209 130.431 104.025 126.839 105.436L128.418 83.3773L132.461 72.5662Z" fill="#3F3D56"/>
<path d="M133.215 107.895L127.096 106.056L132.755 87.0541L133.267 76.445C133.297 75.9092 133.431 75.386 133.661 74.9092C133.89 74.4325 134.21 74.0128 134.601 73.6774C135.07 73.2682 135.614 72.9678 136.197 72.7951C136.781 72.6223 137.391 72.581 137.989 72.6737C139.989 72.9679 141.46 74.6106 141.487 76.5798L141.487 76.5894L141.486 76.5989L139.52 91.4691L138.89 93.8898L133.215 107.895Z" fill="#CBCBCB"/>
<path d="M140.405 65.0365L141.758 65.4041L143.81 63.0611C143.81 63.0611 147.58 53.6652 139.247 52.2274C130.914 50.7896 132.734 54.4195 131.62 56.6958L135.025 57.647L138.089 61.0125C138.089 61.0125 140.089 59.4389 140.677 60.8662C141.265 62.2934 140.405 65.0365 140.405 65.0365Z" fill="#2F2E41"/>
<path d="M92.9934 119.531H-9.53674e-06V19.6217H92.9934V119.531Z" fill="white"/>
<path d="M92.9934 119.531H-9.53674e-06V19.6217H92.9934V119.531ZM1.37396 118.055H91.6194V21.0978H1.37396V118.055Z" fill="#E5E5E5"/>
<path d="M78.8136 62.5714H19.174V64.8332H78.8136V62.5714Z" fill="#6C63FF"/>
<path d="M78.8136 68.4522H19.174V70.7141H78.8136V68.4522Z" fill="#6C63FF"/>
<path d="M78.8136 74.3331H19.174V76.595H78.8136V74.3331Z" fill="#6C63FF"/>
<path d="M15.5539 65.5098C16.3127 65.5098 16.9278 64.8489 16.9278 64.0337C16.9278 63.2184 16.3127 62.5575 15.5539 62.5575C14.795 62.5575 14.1799 63.2184 14.1799 64.0337C14.1799 64.8489 14.795 65.5098 15.5539 65.5098Z" fill="#6C63FF"/>
<path d="M78.8136 37.2308H19.174V39.4927H78.8136V37.2308Z" fill="#E5E5E5"/>
<path d="M78.8136 43.1117H19.174V45.3735H78.8136V43.1117Z" fill="#E5E5E5"/>
<path d="M78.8136 48.9926H19.174V51.2544H78.8136V48.9926Z" fill="#E5E5E5"/>
<path d="M15.5539 39.9232C16.3127 39.9232 16.9278 39.2623 16.9278 38.4471C16.9278 37.6318 16.3127 36.9709 15.5539 36.9709C14.795 36.9709 14.1799 37.6318 14.1799 38.4471C14.1799 39.2623 14.795 39.9232 15.5539 39.9232Z" fill="#E5E5E5"/>
<path d="M78.8136 88.158H19.174V90.4198H78.8136V88.158Z" fill="#E5E5E5"/>
<path d="M78.8136 94.0388H19.174V96.3007H78.8136V94.0388Z" fill="#E5E5E5"/>
<path d="M78.8136 99.9197H19.174V102.182H78.8136V99.9197Z" fill="#E5E5E5"/>
<path d="M15.5539 90.8504C16.3127 90.8504 16.9278 90.1895 16.9278 89.3743C16.9278 88.559 16.3127 87.8981 15.5539 87.8981C14.795 87.8981 14.1799 88.559 14.1799 89.3743C14.1799 90.1895 14.795 90.8504 15.5539 90.8504Z" fill="#E5E5E5"/>
<path d="M178.771 157.937H110.302C110.241 157.937 110.183 157.911 110.14 157.865C110.097 157.819 110.073 157.756 110.073 157.691C110.073 157.626 110.097 157.563 110.14 157.517C110.183 157.471 110.241 157.445 110.302 157.445H178.771C178.832 157.445 178.89 157.471 178.933 157.517C178.976 157.563 179 157.626 179 157.691C179 157.756 178.976 157.819 178.933 157.865C178.89 157.911 178.832 157.937 178.771 157.937Z" fill="#CBCBCB"/>
</g>
<defs>
<clipPath id="clip0">
<rect width="179" height="158" fill="white"/>
</clipPath>
</defs>
</svg>
