<svg width="28" height="27" viewBox="0 0 28 27" fill="none" xmlns="http://www.w3.org/2000/svg">
<g clip-path="url(#clip0)">
<path d="M14.2123 0C6.61012 0 0.425365 6.05615 0.425365 13.5001C0.425365 20.9438 6.61012 27 14.2123 27C21.8144 27 27.9993 20.9438 27.9993 13.5001C27.9993 6.05615 21.8144 0 14.2123 0ZM14.2123 25.152C7.65081 25.152 2.31273 19.925 2.3126 13.5001C2.3126 7.07516 7.65069 1.84816 14.2123 1.84804C20.7738 1.84816 26.1118 7.07516 26.1118 13.5002C26.1118 19.9248 20.7738 25.152 14.2123 25.152Z" fill="black"/>
<path d="M16.0642 7.71791C15.6957 7.35717 15.0981 7.35729 14.7297 7.71791C14.3611 8.07889 14.3611 8.66386 14.7299 9.02484L18.3561 12.5754L7.85521 12.5764C7.33404 12.5765 6.91165 12.9901 6.91165 13.5007C6.91178 14.011 7.33417 14.4244 7.85533 14.4244L18.3566 14.4235L14.7295 17.9748C14.3609 18.3356 14.3609 18.9209 14.7295 19.2816C14.9138 19.462 15.1553 19.5523 15.3969 19.5523C15.6383 19.5523 15.8798 19.462 16.0641 19.2817L21.302 14.153C21.4791 13.9798 21.5785 13.7449 21.5785 13.4997C21.5783 13.2545 21.4789 13.0197 21.3019 12.8461L16.0642 7.71791Z" fill="black"/>
</g>
<defs>
<clipPath id="clip0">
<rect width="27.5745" height="27" fill="white" transform="translate(28 27) rotate(-180)"/>
</clipPath>
</defs>
</svg>
