<svg width="347" height="278" viewBox="0 0 347 278" fill="none" xmlns="http://www.w3.org/2000/svg">
<g clip-path="url(#clip0)">
<path d="M342.328 95.1192C342.736 96.6284 343.117 98.1453 343.473 99.6699H222.326V95.1192H342.328Z" fill="#E6E6E6"/>
<path d="M338.467 83.1235C336.517 77.8993 334.242 72.789 331.656 67.8194C330.86 66.2871 330.034 64.7702 329.177 63.2686C329.036 63.011 328.886 62.7533 328.736 62.4956V96.3616H339.204V85.1389L338.467 83.1235Z" fill="#E6E6E6"/>
<path d="M331.656 67.8193H328.736V63.2686H329.177C330.036 64.7687 330.862 66.2856 331.656 67.8193Z" fill="#CCCCCC"/>
<path d="M338.467 83.1235H328.736V87.6742H339.204V85.1389L338.467 83.1235Z" fill="#CCCCCC"/>
<path d="M323.067 57.0646H312.6V96.3621H323.067V57.0646Z" fill="#E6E6E6"/>
<path d="M323.067 63.2695H312.6V67.8197H323.067V63.2695Z" fill="#CCCCCC"/>
<path d="M323.067 83.125H312.6V87.6752H323.067V83.125Z" fill="#CCCCCC"/>
<path d="M275.334 56.8359H237.786C237.208 56.8368 236.653 57.0552 236.244 57.4433C235.834 57.8315 235.604 58.3576 235.603 58.9065V94.521C235.604 94.7236 235.635 94.925 235.695 95.1192C235.832 95.5448 236.108 95.9175 236.485 96.1826C236.861 96.4477 237.317 96.5911 237.786 96.5916H275.334C275.803 96.5911 276.259 96.4478 276.636 96.1827C277.012 95.9176 277.289 95.5448 277.425 95.1192C277.486 94.925 277.517 94.7236 277.517 94.521V58.9065C277.516 58.3576 277.286 57.8315 276.877 57.4433C276.468 57.0552 275.913 56.8368 275.334 56.8359Z" fill="#E6E6E6"/>
<path d="M272.666 59.3666H240.455C239.876 59.3675 239.321 59.5859 238.912 59.974C238.503 60.3622 238.272 60.8883 238.271 61.4372V91.9902C238.272 92.5391 238.503 93.0653 238.912 93.4535C239.321 93.8416 239.876 94.06 240.455 94.0608H272.666C273.245 94.06 273.799 93.8416 274.209 93.4535C274.618 93.0653 274.848 92.5391 274.849 91.9902V61.4372C274.848 60.8883 274.618 60.3622 274.209 59.974C273.799 59.5859 273.245 59.3675 272.666 59.3666Z" fill="white"/>
<path d="M267.049 64.6951H246.072C245.493 64.6959 244.939 64.9143 244.529 65.3025C244.12 65.6906 243.89 66.2168 243.889 66.7657V86.6619C243.89 87.2108 244.12 87.737 244.529 88.1252C244.939 88.5133 245.493 88.7317 246.072 88.7325H267.049C267.627 88.7297 268.18 88.5106 268.589 88.1229C268.998 87.7352 269.229 87.2102 269.232 86.6619V66.7657C269.231 66.2168 269 65.6906 268.591 65.3025C268.182 64.9143 267.627 64.6959 267.049 64.6951Z" fill="#CCCCCC"/>
<path d="M265.755 83.1526L261.325 75.8737C261.24 75.7338 261.117 75.6176 260.97 75.5368C260.822 75.4561 260.655 75.4136 260.484 75.4136C260.314 75.4136 260.147 75.4561 259.999 75.5368C259.852 75.6176 259.729 75.7338 259.644 75.8737L256.409 81.1888L252.166 74.219C252.081 74.0791 251.958 73.9629 251.811 73.8821C251.664 73.8014 251.496 73.7588 251.326 73.7589C251.156 73.7589 250.988 73.8014 250.841 73.8822C250.693 73.9629 250.571 74.0791 250.486 74.219L246.055 81.4979L240.784 90.1572H250.95L249.943 91.8119H271.026L265.755 83.1526Z" fill="white"/>
<path d="M264.191 71.9563C265.877 71.9563 267.244 70.6599 267.244 69.0607C267.244 67.4615 265.877 66.1651 264.191 66.1651C262.505 66.1651 261.139 67.4615 261.139 69.0607C261.139 70.6599 262.505 71.9563 264.191 71.9563Z" fill="white"/>
<path d="M346.961 127.273C346.927 125.488 346.853 123.712 346.738 121.945C346.69 121.098 346.631 120.256 346.559 119.414H326.077C325.498 119.415 324.944 119.634 324.534 120.022C324.125 120.41 323.895 120.936 323.894 121.485V157.099C323.893 157.262 323.914 157.425 323.957 157.583C324.072 158.034 324.343 158.436 324.728 158.724C325.112 159.012 325.587 159.169 326.077 159.17H344.958C345.055 158.645 345.147 158.112 345.229 157.583C345.283 157.27 345.336 156.952 345.385 156.639C345.501 155.889 345.613 155.139 345.714 154.389C345.86 153.368 345.991 152.342 346.107 151.311C346.534 147.616 346.809 143.881 346.932 140.107V140.102C346.976 138.68 346.998 137.252 347 135.818V130.297C347 129.284 346.991 128.277 346.961 127.273Z" fill="#E6E6E6"/>
<path d="M346.961 127.273C346.927 125.488 346.853 123.712 346.738 121.945H328.745C328.167 121.946 327.612 122.164 327.203 122.552C326.793 122.941 326.563 123.467 326.562 124.016V154.569C326.563 155.118 326.793 155.644 327.203 156.032C327.612 156.42 328.167 156.638 328.745 156.639H345.385C345.501 155.889 345.613 155.139 345.714 154.389C345.86 153.368 345.991 152.342 346.107 151.311C346.534 147.616 346.809 143.881 346.932 140.107V140.102C346.976 138.68 346.998 137.252 347 135.818V130.297C347 129.284 346.991 128.277 346.961 127.273Z" fill="white"/>
<path d="M346.961 127.273H334.363C333.784 127.274 333.229 127.493 332.82 127.881C332.411 128.269 332.181 128.795 332.18 129.344V149.24C332.181 149.789 332.411 150.315 332.82 150.704C333.229 151.092 333.784 151.31 334.363 151.311H346.107C346.534 147.616 346.809 143.881 346.932 140.107V140.102C346.976 138.68 346.998 137.252 347 135.818V130.297C347 129.284 346.991 128.277 346.961 127.273Z" fill="#CCCCCC"/>
<path d="M346.932 140.107C346.811 143.88 346.536 147.615 346.107 151.311C345.991 152.342 345.86 153.368 345.714 154.389H338.234L339.243 152.737H329.075L332.18 147.634L334.343 144.078L338.777 136.798C338.862 136.658 338.984 136.541 339.131 136.46C339.279 136.379 339.446 136.336 339.617 136.336C339.787 136.336 339.955 136.379 340.102 136.46C340.249 136.541 340.372 136.658 340.456 136.798L344.701 143.769L346.932 140.107Z" fill="white"/>
<path d="M310.175 37.2111H222.326V32.6604H305.819C307.303 34.1466 308.755 35.6636 310.175 37.2111Z" fill="#E6E6E6"/>
<path d="M268.989 5.65045C272.569 7.5186 276.059 9.52018 279.458 11.6552V33.8982H268.989V5.65045Z" fill="#E6E6E6"/>
<path d="M279.455 20.6628H268.989V25.213H279.455V20.6628Z" fill="#CCCCCC"/>
<path d="M295.593 23.3427V33.8982H285.124V15.3961C287.564 17.0848 289.949 18.841 292.279 20.6647C293.395 21.5389 294.499 22.4316 295.593 23.3427Z" fill="#E6E6E6"/>
<path d="M295.593 23.3427V25.2108H285.124V20.6647H292.279C293.395 21.5389 294.499 22.4316 295.593 23.3427Z" fill="#CCCCCC"/>
<path d="M258.302 0.579775C261.072 1.7623 263.795 3.02307 266.471 4.36209L264.317 8.4849L257.162 22.2015L255.032 26.2783L251.699 32.6604L250.967 34.0638L247.983 32.6604L241.59 29.6557L245.65 21.8702H245.655L247.78 17.7934L254.94 4.0768L257.045 0.0460164L257.07 0L258.302 0.579775Z" fill="#E6E6E6"/>
<path d="M266.447 4.40349L264.317 8.4849L254.94 4.0768L257.045 0.0460135L257.07 0L258.302 0.579771L266.447 4.40349Z" fill="#CCCCCC"/>
<path d="M247.78 17.7947L245.651 21.8725L255.032 26.2774L257.16 22.1995L247.78 17.7947Z" fill="#CCCCCC"/>
<path d="M345.229 157.583C345.147 158.112 345.055 158.645 344.958 159.17C344.788 160.164 344.603 161.149 344.405 162.133H222.326V157.583H345.229Z" fill="#E6E6E6"/>
<path d="M279.455 119.527H268.989V158.824H279.455V119.527Z" fill="#E6E6E6"/>
<path d="M279.455 125.732H268.989V130.282H279.455V125.732Z" fill="#CCCCCC"/>
<path d="M279.455 145.587H268.989V150.138H279.455V145.587Z" fill="#CCCCCC"/>
<path d="M295.592 119.527H285.125V158.824H295.592V119.527Z" fill="#E6E6E6"/>
<path d="M295.592 125.732H285.125V130.282H295.592V125.732Z" fill="#CCCCCC"/>
<path d="M295.592 145.587H285.125V150.138H295.592V145.587Z" fill="#CCCCCC"/>
<path d="M259.97 119.364L241.588 154.582L250.968 158.987L269.35 123.769L259.97 119.364Z" fill="#E6E6E6"/>
<path d="M257.068 124.925L254.939 129.003L264.319 133.408L266.448 129.33L257.068 124.925Z" fill="#CCCCCC"/>
<path d="M247.78 142.719L245.651 146.797L255.031 151.202L257.16 147.124L247.78 142.719Z" fill="#CCCCCC"/>
<path d="M142.04 175.119C142.478 175.358 142.895 175.629 143.287 175.93L186.476 163.181L188.912 153.018L205.563 154.499L203.095 172.889C202.896 174.375 202.194 175.759 201.095 176.834C199.995 177.909 198.558 178.617 196.998 178.851L146.171 186.484C145.43 188.189 144.159 189.639 142.527 190.641C140.895 191.644 138.981 192.152 137.037 192.097C135.094 192.043 133.214 191.428 131.648 190.335C130.082 189.243 128.904 187.724 128.27 185.98C127.636 184.237 127.577 182.352 128.1 180.576C128.624 178.8 129.705 177.217 131.2 176.038C132.695 174.859 134.533 174.139 136.469 173.975C138.406 173.811 140.349 174.21 142.04 175.119Z" fill="#FFB8B8"/>
<path d="M213.259 160.596L212.973 155.958V155.954L212.895 154.684L212.051 141.027C212.304 138.18 211.357 135.354 209.417 133.168C207.478 130.982 204.704 129.613 201.704 129.363C200.84 129.289 199.971 129.311 199.113 129.427C196.564 129.769 194.212 130.917 192.438 132.686C190.663 134.455 189.571 136.741 189.338 139.173L187.587 146.084L184.526 158.172C184.309 159.017 184.399 159.908 184.781 160.699C185.163 161.49 185.815 162.137 186.631 162.534C187.103 162.769 187.619 162.913 188.15 162.957L193.253 163.39L198.167 163.804L203.838 164.282L204.246 164.314L205.293 164.406L208.801 164.701H208.81C209.396 164.746 209.986 164.672 210.539 164.485C211.093 164.298 211.598 164.001 212.022 163.615C212.331 163.33 212.591 163.001 212.793 162.639C213.147 162.013 213.308 161.305 213.259 160.596V160.596Z" fill="#6C63FF"/>
<path d="M260.652 104.355C260.652 120.104 245.3 117.722 226.362 117.722C207.424 117.722 192.072 120.104 192.072 104.355C192.072 88.607 199.571 60.692 226.362 60.692C254.076 60.692 260.652 88.607 260.652 104.355Z" fill="#2F2E41"/>
<path d="M242.563 111.285C251.574 102.738 251.574 88.8805 242.563 80.3335C233.552 71.7864 218.943 71.7864 209.932 80.3335C200.921 88.8805 200.921 102.738 209.932 111.285C218.943 119.832 233.552 119.832 242.563 111.285Z" fill="#FFB8B8"/>
<path d="M258.729 126.896C258.285 126.49 257.813 126.112 257.317 125.764C254.18 123.516 250.238 122.526 246.339 123.008L203.819 128.111C199.924 128.569 196.37 130.449 193.912 133.35C191.453 136.252 190.282 139.948 190.648 143.654C190.769 144.943 190.905 146.3 191.055 147.713C191.25 149.484 191.468 151.343 191.72 153.266C192.137 156.501 192.647 159.915 193.253 163.389C193.782 166.38 194.383 169.413 195.072 172.408C195.271 173.273 195.478 174.135 195.693 174.994C195.693 174.997 195.693 174.999 195.694 175.001C195.695 175.004 195.696 175.006 195.698 175.008C195.722 175.114 195.746 175.219 195.775 175.321C195.774 175.329 195.776 175.337 195.78 175.344C196.081 176.54 196.397 177.723 196.726 178.891C196.852 179.324 196.974 179.752 197.1 180.175C197.439 181.325 197.799 182.453 198.167 183.562C200.937 191.812 204.6 198.838 209.436 202.575C209.499 202.63 209.563 202.676 209.63 202.726L209.825 202.869L210.106 202.786L211.299 202.45L212.318 202.156L225.591 198.369L228.894 197.426L239.509 194.393H239.513L249.221 191.623L250.404 191.283L258.743 188.904L259.01 185.95L259.369 182.029L259.583 179.674L261.271 161.093L262.256 150.253L263.323 138.482C263.521 136.348 263.211 134.199 262.416 132.193C261.621 130.188 260.361 128.377 258.729 126.896Z" fill="#2F2E41"/>
<path d="M282.504 216.802C282.393 216.494 282.286 216.185 282.174 215.882C277.187 202.078 269.833 191.637 259.01 185.95C259.005 185.95 259.005 185.945 259 185.945L258.816 185.849L249.385 188.945L248.221 189.327L247.008 189.728L246.994 189.732L238.165 192.631L238.15 192.636L231.223 194.909H231.218L224.81 197.012H224.805L223.315 197.504L212.114 201.18L210.814 201.608L209.65 201.99L209.47 202.05L209.436 202.575L208.636 215.882L208.583 216.802L207.583 233.408L174.397 278H197.1C204.707 278.002 212.303 277.452 219.823 276.357L241.124 254.584C241.302 254.408 241.528 254.283 241.776 254.22C242.025 254.158 242.286 254.161 242.533 254.229C242.78 254.297 243.002 254.428 243.176 254.607C243.35 254.786 243.469 255.007 243.521 255.246L246.649 269.971C262.064 264.8 276.485 257.275 289.339 247.691C287.845 236.257 285.662 225.834 282.504 216.802Z" fill="#2F2E41"/>
<path d="M199.588 93.6622H208.714L212.74 82.9692L213.545 93.6622H217.907L220.256 87.4246L220.725 93.6622H253.137C253.137 90.6197 252.505 87.607 251.278 84.7961C250.05 81.9852 248.251 79.4312 245.983 77.2798C243.715 75.1284 241.022 73.4218 238.058 72.2575C235.095 71.0932 231.919 70.494 228.711 70.494H224.014C217.535 70.494 211.323 72.9349 206.742 77.2798C202.161 81.6247 199.588 87.5176 199.588 93.6622Z" fill="#2F2E41"/>
<path d="M143.453 209.618C141.963 210.212 140.354 210.489 138.739 210.429C137.124 210.369 135.543 209.974 134.106 209.272C132.669 208.569 131.413 207.577 130.424 206.364C129.436 205.151 128.74 203.748 128.385 202.252L89.3504 198.059L102.435 183.196L137.498 189.457C140.186 189.058 142.935 189.609 145.224 191.005C147.513 192.4 149.182 194.543 149.916 197.029C150.65 199.514 150.398 202.168 149.207 204.488C148.015 206.809 145.968 208.634 143.453 209.618L143.453 209.618Z" fill="#A0616A"/>
<path d="M122.407 182.108L105.908 179.31L104.71 179.108C103.752 178.945 102.842 178.593 102.038 178.073C101.235 177.553 100.556 176.878 100.047 176.092C99.5381 175.306 99.2102 174.427 99.0849 173.512C98.9597 172.597 99.0399 171.667 99.3204 170.784L107.422 145.251L107.664 144.492C108.676 141.246 108.496 137.771 107.153 134.636C105.811 131.5 103.386 128.89 100.276 127.232C98.1705 126.123 95.8238 125.49 93.4183 125.381C91.0128 125.273 88.6133 125.692 86.4064 126.606C84.1995 127.521 82.2448 128.906 80.6941 130.653C79.1435 132.401 78.0388 134.465 77.4659 136.683L67.1331 176.683L66.7498 178.164C66.0281 180.955 65.9494 183.861 66.5191 186.684C67.0888 189.506 68.2934 192.179 70.0509 194.52C71.8084 196.861 74.0774 198.815 76.7032 200.248C79.329 201.682 82.2498 202.562 85.2666 202.828C85.3005 202.832 85.3296 202.832 85.3637 202.837L91.5489 203.357L99.5725 204.033L109.663 204.884L119.079 205.681C120.312 205.787 121.543 205.449 122.526 204.735C123.509 204.02 124.173 202.982 124.386 201.825C124.401 201.76 124.41 201.696 124.42 201.631L126.419 187.478L126.438 187.349C126.611 186.15 126.287 184.935 125.535 183.958C124.784 182.981 123.663 182.318 122.407 182.108Z" fill="#CCCCCC"/>
<path d="M96.9878 74.8648C90.4015 87.1471 85.2107 99.8152 70.6829 99.8152C63.7064 99.8152 57.0157 97.1865 52.0826 92.5074C47.1494 87.8283 44.3781 81.482 44.3781 74.8648C44.3781 61.085 56.1562 50.0868 70.6829 49.9143C85.4473 49.739 109.247 52.0036 96.9878 74.8648Z" fill="#2F2E41"/>
<path d="M113.51 235.543L112.913 229.893L112.467 229.916L34.0287 233.5L34.2325 239.22L34.5771 249.016C46.7142 257.785 60.1925 264.745 74.5455 269.653L75.055 265.908C75.0995 265.602 75.2539 265.321 75.4919 265.112C75.73 264.902 76.0371 264.777 76.3613 264.757C76.6855 264.738 77.0068 264.825 77.2709 265.005C77.535 265.184 77.7255 265.445 77.8103 265.742L79.3578 271.213C91.8609 275.038 104.845 277.267 117.968 277.844L113.51 235.543Z" fill="#2F2E41"/>
<path d="M88.2933 93.8908C97.3043 85.3438 97.3043 71.4863 88.2933 62.9393C79.2823 54.3923 64.6726 54.3923 55.6616 62.9393C46.6506 71.4863 46.6506 85.3438 55.6616 93.8908C64.6726 102.438 79.2823 102.438 88.2933 93.8908Z" fill="#A0616A"/>
<path d="M118.017 230.275L113.442 216.802L113.364 216.572L113.131 215.882L111.827 212.044C111.404 210.797 111.002 209.546 110.628 208.289C110.284 207.158 109.962 206.023 109.663 204.884C109.236 203.302 108.848 201.713 108.499 200.117C107.315 194.757 106.525 189.325 106.136 183.861C106.029 182.347 105.953 180.83 105.908 179.31C105.624 169.994 106.508 160.678 108.542 151.559C110.313 143.674 109.367 135.458 105.844 128.121C102.321 120.784 96.407 114.714 88.9729 110.805C84.0947 108.248 78.6954 106.712 73.1387 106.3C72.7555 106.273 72.3722 106.25 71.9842 106.227C66.1144 105.875 60.2361 106.778 54.7835 108.87C49.3309 110.961 44.4431 114.187 40.4809 118.31C38.3587 120.503 36.5155 122.924 34.9893 125.525C30.7545 132.762 29.1647 141.125 30.4681 149.309L35.9206 184.036L34.679 198.654L33.2139 215.882L33.1362 216.802L31.5741 235.171C31.5001 236.027 31.7186 236.883 32.1974 237.612C32.6762 238.341 33.3897 238.905 34.2325 239.22C34.7261 239.407 35.2532 239.503 35.7849 239.5C35.8626 239.5 35.9353 239.5 36.013 239.496L113.51 235.543L114.218 235.507C114.865 235.475 115.495 235.302 116.06 235.003C116.625 234.703 117.109 234.284 117.477 233.778C117.844 233.273 118.083 232.694 118.177 232.086C118.271 231.479 118.216 230.859 118.017 230.275L118.017 230.275Z" fill="#CCCCCC"/>
<path d="M96.4627 66.0462C91.1899 69.4933 84.9316 71.3278 78.5278 71.3035C80.8121 72.8058 83.4126 73.8206 86.1502 74.278C77.6359 76.0103 68.8362 76.0572 60.3019 74.4157C58.4049 74.1272 56.5744 73.5309 54.8908 72.6529C53.2522 71.7094 51.8814 70.2071 51.5509 68.4161C50.9838 65.3431 53.5082 62.5513 56.1317 60.6698C60.1484 57.833 64.7796 55.8785 69.6904 54.9477C74.6012 54.0169 79.6687 54.1331 84.5264 55.2879C87.6982 56.0656 90.8757 57.3795 92.9359 59.7956C94.9961 62.2117 95.6064 65.9365 93.6436 68.4245L96.4627 66.0462Z" fill="#2F2E41"/>
<path d="M97.6424 205.065C96.1663 205.689 94.5639 205.999 92.9481 205.972C91.3322 205.946 89.7422 205.583 88.2899 204.911C86.8377 204.238 85.5586 203.271 84.5428 202.079C83.527 200.887 82.7991 199.498 82.4104 198.01L43.2889 194.619L56.0316 179.492L91.2284 185.031C93.907 184.577 96.668 185.071 98.9882 186.419C101.308 187.768 103.027 189.876 103.817 192.346C104.608 194.815 104.416 197.474 103.278 199.818C102.14 202.163 100.135 204.029 97.6424 205.065L97.6424 205.065Z" fill="#A0616A"/>
<path d="M75.9767 177.994L67.1331 176.683L58.2118 175.358C57.251 175.215 56.3328 174.882 55.5175 174.379C54.7023 173.876 54.0085 173.215 53.4816 172.44C52.9547 171.665 52.6067 170.792 52.4604 169.88C52.3142 168.968 52.373 168.038 52.633 167.149L60.3754 140.691C61.3123 137.426 61.0527 133.955 59.6391 130.848C58.2255 127.741 55.7416 125.181 52.5941 123.588C50.4679 122.512 48.1067 121.92 45.6976 121.861C43.2885 121.801 40.8979 122.274 38.7151 123.243C36.5257 124.196 34.5995 125.619 33.0884 127.399C31.5773 129.178 30.5226 131.267 30.0072 133.499L20.2419 175.192C19.5841 178.004 19.5746 180.918 20.214 183.734C20.8535 186.551 22.1268 189.203 23.9469 191.509C25.767 193.815 28.0909 195.721 30.7596 197.096C33.4282 198.472 36.3786 199.284 39.4089 199.478L73.1873 201.627C74.4225 201.707 75.6442 201.344 76.6108 200.61C77.5774 199.877 78.2184 198.825 78.407 197.665C78.4217 197.601 78.4264 197.536 78.4361 197.472L80.1099 183.281L80.1243 183.152C80.2686 181.951 79.9174 180.743 79.1444 179.782C78.3714 178.82 77.2363 178.18 75.9767 177.994Z" fill="#CCCCCC"/>
<path d="M225.623 156L223.599 157.047L198.658 169.955L196.634 171.002C195.652 171.512 194.923 172.37 194.607 173.389C194.291 174.408 194.414 175.504 194.949 176.437L213.522 208.724C214.059 209.656 214.964 210.347 216.039 210.647C217.113 210.946 218.269 210.829 219.252 210.322L219.257 210.319L248.236 195.322L248.241 195.319C249.224 194.809 249.953 193.951 250.268 192.932C250.584 191.913 250.461 190.817 249.926 189.884L231.353 157.597C230.816 156.666 229.911 155.974 228.836 155.675C227.762 155.375 226.607 155.492 225.623 156Z" fill="#E6E6E6"/>
<path d="M226.205 157.012L223.808 158.253L199.614 170.774L197.216 172.015C196.517 172.378 195.998 172.989 195.773 173.714C195.548 174.44 195.636 175.221 196.017 175.885L214.589 208.172C214.972 208.835 215.616 209.327 216.381 209.541C217.146 209.754 217.969 209.671 218.67 209.309L218.675 209.307L247.654 194.309L247.659 194.307C248.358 193.944 248.878 193.332 249.102 192.607C249.327 191.881 249.24 191.101 248.859 190.436L230.286 158.15C229.903 157.486 229.259 156.994 228.494 156.78C227.729 156.567 226.906 156.65 226.205 157.012Z" fill="white"/>
<path d="M226.886 166.127C226.796 165.972 226.645 165.857 226.466 165.807C226.287 165.757 226.094 165.776 225.93 165.86L224.965 166.362L215.122 171.456C214.959 171.541 214.838 171.684 214.786 171.854C214.734 172.023 214.755 172.205 214.844 172.36C214.933 172.515 215.083 172.63 215.262 172.681C215.44 172.731 215.632 172.713 215.796 172.629L226.605 167.034C226.768 166.948 226.889 166.805 226.942 166.635C226.994 166.466 226.974 166.283 226.886 166.127Z" fill="#E6E6E6"/>
<path d="M230.568 166.785C230.524 166.708 230.465 166.641 230.393 166.586C230.321 166.531 230.239 166.49 230.15 166.466C230.062 166.442 229.969 166.434 229.878 166.444C229.786 166.454 229.698 166.481 229.617 166.523L216.262 173.434C216.181 173.476 216.109 173.533 216.052 173.601C215.994 173.669 215.951 173.748 215.925 173.832C215.899 173.916 215.891 174.004 215.901 174.09C215.911 174.177 215.939 174.262 215.983 174.338C216.027 174.415 216.087 174.483 216.159 174.538C216.231 174.593 216.313 174.633 216.402 174.658C216.49 174.683 216.583 174.69 216.675 174.681C216.766 174.671 216.855 174.645 216.936 174.603L217.557 174.281L221.443 172.27H221.448L230.287 167.692C230.368 167.65 230.441 167.594 230.499 167.526C230.558 167.457 230.601 167.379 230.628 167.295C230.654 167.21 230.662 167.122 230.652 167.034C230.642 166.947 230.613 166.862 230.568 166.785Z" fill="#E6E6E6"/>
<path d="M216.053 177.801L211.813 170.425C211.769 170.351 211.696 170.296 211.61 170.273C211.524 170.25 211.431 170.26 211.353 170.301L209.296 171.364L208.229 171.916L202.499 174.879L201.388 175.454C201.31 175.496 201.253 175.565 201.228 175.647C201.204 175.729 201.214 175.817 201.257 175.891L201.529 176.365L205.497 183.267C205.54 183.341 205.613 183.395 205.698 183.419C205.784 183.442 205.875 183.432 205.953 183.392L212.793 179.853L213.861 179.301L215.917 178.238C215.957 178.218 215.992 178.191 216.02 178.158C216.048 178.125 216.069 178.087 216.081 178.046C216.094 178.006 216.098 177.963 216.093 177.921C216.089 177.879 216.075 177.838 216.053 177.801Z" fill="#E6E6E6"/>
<path d="M232.246 175.486C232.157 175.332 232.007 175.217 231.829 175.167C231.651 175.117 231.459 175.136 231.296 175.22L216.635 182.807C216.506 182.874 216.402 182.979 216.338 183.105C216.275 183.231 216.255 183.373 216.281 183.511C216.291 183.583 216.316 183.651 216.354 183.714C216.391 183.777 216.439 183.835 216.495 183.884L216.5 183.888C216.608 183.981 216.744 184.04 216.889 184.056C217.034 184.073 217.181 184.046 217.31 183.981L231.97 176.393C232.051 176.351 232.122 176.294 232.18 176.225C232.238 176.157 232.281 176.078 232.307 175.994C232.332 175.91 232.34 175.822 232.33 175.735C232.32 175.647 232.291 175.563 232.246 175.486Z" fill="#E6E6E6"/>
<path d="M235.933 176.144C235.889 176.068 235.829 176 235.756 175.945C235.684 175.891 235.601 175.85 235.513 175.825C235.424 175.801 235.331 175.794 235.239 175.803C235.147 175.813 235.058 175.84 234.978 175.882L217.771 184.786C217.641 184.851 217.537 184.953 217.473 185.078C217.41 185.203 217.39 185.344 217.417 185.481V185.485C217.427 185.557 217.451 185.625 217.489 185.688C217.527 185.754 217.576 185.813 217.635 185.862C217.742 185.957 217.878 186.017 218.024 186.033C218.169 186.05 218.317 186.022 218.445 185.955L235.652 177.051C235.816 176.966 235.937 176.823 235.99 176.653C236.042 176.483 236.022 176.3 235.933 176.144Z" fill="#E6E6E6"/>
<path d="M211.725 190.193C213.373 190.193 214.709 188.926 214.709 187.363C214.709 185.8 213.373 184.533 211.725 184.533C210.077 184.533 208.741 185.8 208.741 187.363C208.741 188.926 210.077 190.193 211.725 190.193Z" fill="#E6E6E6"/>
<path d="M234.355 143.576L232.331 144.623L207.39 157.531L205.366 158.579C204.384 159.088 203.655 159.947 203.339 160.966C203.023 161.985 203.146 163.081 203.681 164.014L222.254 196.3C222.791 197.232 223.696 197.923 224.771 198.223C225.845 198.522 227.001 198.406 227.984 197.898L227.989 197.895L256.968 182.898L256.973 182.895C257.956 182.386 258.684 181.527 259 180.508C259.316 179.489 259.193 178.393 258.658 177.46L240.085 145.174C239.548 144.242 238.643 143.55 237.568 143.251C236.494 142.951 235.339 143.068 234.355 143.576Z" fill="#CCCCCC"/>
<path d="M234.938 144.588L232.54 145.829L208.346 158.35L205.948 159.591C205.249 159.954 204.73 160.565 204.505 161.291C204.28 162.016 204.368 162.797 204.749 163.461L223.321 195.748C223.704 196.411 224.349 196.904 225.113 197.117C225.878 197.33 226.701 197.247 227.402 196.886L227.407 196.883L256.386 181.886L256.391 181.883C257.091 181.52 257.61 180.909 257.835 180.183C258.059 179.457 257.972 178.677 257.591 178.013L239.018 145.726C238.635 145.062 237.991 144.57 237.226 144.357C236.461 144.143 235.638 144.227 234.938 144.588Z" fill="white"/>
<path d="M235.618 153.704C235.528 153.549 235.377 153.434 235.198 153.384C235.019 153.334 234.826 153.353 234.662 153.437L229.685 156.013L228.297 156.731L223.854 159.032C223.691 159.117 223.57 159.26 223.518 159.43C223.466 159.599 223.487 159.781 223.576 159.937C223.665 160.092 223.815 160.207 223.994 160.257C224.172 160.308 224.364 160.289 224.528 160.205L229.768 157.495L230.864 156.925L235.337 154.61C235.5 154.525 235.621 154.381 235.674 154.212C235.727 154.042 235.706 153.859 235.618 153.704Z" fill="#CCCCCC"/>
<path d="M239.3 154.362C239.256 154.285 239.197 154.217 239.125 154.162C239.053 154.107 238.971 154.067 238.882 154.042C238.794 154.018 238.701 154.01 238.61 154.02C238.518 154.03 238.43 154.057 238.349 154.099L231.407 157.693L230.34 158.245L224.994 161.011C224.913 161.053 224.842 161.109 224.784 161.177C224.726 161.246 224.683 161.324 224.657 161.408C224.631 161.492 224.623 161.58 224.633 161.667C224.643 161.754 224.671 161.838 224.715 161.915C224.759 161.992 224.819 162.059 224.891 162.114C224.963 162.169 225.045 162.21 225.134 162.234C225.222 162.259 225.315 162.267 225.407 162.257C225.498 162.248 225.587 162.221 225.668 162.179L231.014 159.414L232.081 158.862L239.019 155.268C239.1 155.227 239.173 155.17 239.231 155.102C239.29 155.034 239.333 154.955 239.36 154.871C239.386 154.786 239.394 154.698 239.384 154.611C239.374 154.523 239.345 154.439 239.3 154.362Z" fill="#CCCCCC"/>
<path d="M224.785 165.377L221.404 159.497L220.822 158.484L220.545 158.001C220.501 157.927 220.428 157.873 220.342 157.849C220.256 157.826 220.163 157.836 220.085 157.877L213.22 161.429L210.12 163.031C210.042 163.072 209.985 163.142 209.96 163.224C209.936 163.305 209.946 163.393 209.989 163.468L210.266 163.946L210.567 164.475L210.848 164.959V164.963L214.229 170.844C214.272 170.917 214.345 170.972 214.43 170.995C214.516 171.018 214.607 171.009 214.685 170.968L224.649 165.814C224.689 165.794 224.724 165.767 224.752 165.734C224.78 165.701 224.801 165.663 224.814 165.623C224.826 165.582 224.83 165.539 224.825 165.497C224.821 165.455 224.807 165.414 224.785 165.377Z" fill="#6C63FF"/>
<path d="M240.978 163.063C240.889 162.908 240.739 162.793 240.561 162.743C240.383 162.693 240.191 162.712 240.028 162.796L235.647 165.064L234.58 165.617L230.349 167.802L225.367 170.384C225.286 170.426 225.214 170.482 225.156 170.551C225.098 170.619 225.055 170.697 225.029 170.782C225.003 170.866 224.994 170.954 225.004 171.041C225.014 171.128 225.042 171.213 225.086 171.29C225.13 171.367 225.19 171.435 225.262 171.49C225.334 171.545 225.417 171.586 225.506 171.611C225.594 171.636 225.687 171.644 225.779 171.635C225.871 171.625 225.96 171.599 226.042 171.557L235.254 166.79L236.321 166.238L240.702 163.969C240.783 163.927 240.854 163.87 240.912 163.802C240.97 163.733 241.013 163.655 241.039 163.57C241.064 163.486 241.072 163.398 241.062 163.311C241.052 163.224 241.023 163.139 240.978 163.063Z" fill="#CCCCCC"/>
<path d="M244.665 163.721C244.621 163.644 244.561 163.576 244.488 163.522C244.416 163.467 244.334 163.426 244.245 163.402C244.156 163.377 244.063 163.37 243.971 163.38C243.879 163.389 243.79 163.416 243.71 163.458L236.787 167.043L235.72 167.595L226.503 172.362C226.421 172.404 226.35 172.46 226.291 172.529C226.233 172.597 226.19 172.675 226.163 172.759C226.137 172.843 226.129 172.932 226.139 173.019C226.149 173.106 226.176 173.191 226.221 173.268C226.265 173.345 226.325 173.413 226.397 173.467C226.47 173.522 226.552 173.563 226.641 173.588C226.73 173.612 226.823 173.62 226.915 173.61C227.007 173.6 227.096 173.573 227.177 173.531L236.389 168.764L237.457 168.212L244.384 164.627C244.548 164.542 244.669 164.399 244.722 164.229C244.774 164.059 244.754 163.876 244.665 163.721Z" fill="#CCCCCC"/>
<path d="M220.457 177.769C222.105 177.769 223.441 176.502 223.441 174.939C223.441 173.376 222.105 172.109 220.457 172.109C218.809 172.109 217.474 173.376 217.474 174.939C217.474 176.502 218.809 177.769 220.457 177.769Z" fill="#CCCCCC"/>
<path d="M222.461 190.85C222.964 190.897 223.461 190.981 223.95 191.102L257.786 162.631L255.598 152.417L271.418 147.27L277.144 164.995C277.607 166.427 277.567 167.962 277.031 169.371C276.496 170.78 275.492 171.986 274.173 172.808L231.155 199.596C231.219 201.439 230.689 203.257 229.637 204.808C228.585 206.358 227.06 207.568 225.265 208.277C223.47 208.985 221.49 209.159 219.588 208.774C217.687 208.389 215.954 207.464 214.62 206.122C213.287 204.78 212.415 203.085 212.122 201.262C211.829 199.439 212.128 197.575 212.979 195.917C213.83 194.259 215.193 192.886 216.887 191.981C218.581 191.076 220.525 190.681 222.461 190.85Z" fill="#FFB8B8"/>
<path d="M281.078 149.82L271.492 132.455C270.506 129.813 268.476 127.639 265.831 126.391C263.186 125.143 260.133 124.918 257.317 125.764C257.21 125.792 257.108 125.824 257.002 125.861C254.148 126.807 251.807 128.789 250.491 131.371C249.176 133.953 248.995 136.924 249.987 139.633L253.834 158.825C253.944 159.374 254.178 159.895 254.52 160.35C254.861 160.806 255.302 161.187 255.813 161.466C256.372 161.776 257.001 161.953 257.647 161.981C258.179 162.013 258.712 161.943 259.214 161.774L261.271 161.093L274.475 156.731L278.793 155.305C279.35 155.12 279.858 154.824 280.284 154.436C280.709 154.048 281.041 153.578 281.258 153.058C281.475 152.538 281.571 151.979 281.54 151.42C281.509 150.862 281.351 150.316 281.078 149.82Z" fill="#6C63FF"/>
<path d="M317.264 216.802H0.485114C0.356454 216.802 0.233063 216.754 0.142086 216.667C0.0511097 216.581 0 216.464 0 216.342C0 216.22 0.0511097 216.103 0.142086 216.016C0.233063 215.93 0.356454 215.882 0.485114 215.882H317.264C317.393 215.882 317.517 215.93 317.608 216.016C317.699 216.103 317.75 216.22 317.75 216.342C317.75 216.464 317.699 216.581 317.608 216.667C317.517 216.754 317.393 216.802 317.264 216.802Z" fill="#3F3D56"/>
<path d="M55.0585 208.289V208.52C55.0602 210.08 55.5392 211.606 56.4373 212.912C57.3355 214.219 58.6142 215.251 60.1183 215.882C61.1973 216.339 62.3662 216.574 63.548 216.572H141.894V208.289H55.0585Z" fill="#3F3D56"/>
<path d="M196.595 153.704C195.352 151.269 193.438 149.199 191.055 147.713C189.975 147.034 188.81 146.487 187.587 146.084C185.92 145.532 184.167 145.25 182.401 145.251H107.208C103.028 145.255 99.0209 146.833 96.0652 149.636C93.1095 152.44 91.4469 156.241 91.4421 160.205V201.618C91.4407 202.199 91.4764 202.78 91.5489 203.357C91.6554 204.22 91.8404 205.073 92.1018 205.906C92.361 206.727 92.6954 207.524 93.1011 208.29C94.4071 210.778 96.4194 212.872 98.9116 214.336C101.404 215.799 104.277 216.573 107.208 216.572H182.401C184.472 216.573 186.522 216.186 188.435 215.435C190.349 214.684 192.087 213.582 193.551 212.194C195.015 210.805 196.177 209.156 196.969 207.341C197.761 205.527 198.168 203.582 198.167 201.618V160.205C198.171 157.953 197.633 155.729 196.595 153.704Z" fill="#3F3D56"/>
<path d="M148.928 184.593C151.071 184.593 152.809 182.944 152.809 180.911C152.809 178.878 151.071 177.23 148.928 177.23C146.785 177.23 145.047 178.878 145.047 180.911C145.047 182.944 146.785 184.593 148.928 184.593Z" fill="white"/>
</g>
<defs>
<clipPath id="clip0">
<rect width="347" height="278" fill="white"/>
</clipPath>
</defs>
</svg>
