<svg width="488" height="250" viewBox="0 0 488 250" fill="none" xmlns="http://www.w3.org/2000/svg">
<path d="M381.393 37.5593H261.948V34.9174H207.787V37.5593H87.8501C85.707 37.5593 83.6518 38.473 82.1365 40.0992C80.6211 41.7255 79.7698 43.9312 79.7698 46.231V221.759C79.7698 224.059 80.6211 226.265 82.1365 227.891C83.6518 229.517 85.707 230.431 87.8501 230.431H381.393C383.536 230.431 385.591 229.517 387.106 227.891C388.622 226.265 389.473 224.059 389.473 221.759V46.2301C389.473 43.9304 388.621 41.7249 387.106 40.0989C385.591 38.4728 383.536 37.5593 381.393 37.5593Z" fill="#3F3D56"/>
<path d="M378.64 52.8831H90.6028V227.26H378.64V52.8831Z" fill="#E6E6E6"/>
<path d="M366.523 62.1047H102.818V212.831H366.523V62.1047Z" fill="white"/>
<path d="M234.375 48.128C236.007 48.128 237.329 46.7085 237.329 44.9574C237.329 43.2063 236.007 41.7868 234.375 41.7868C232.744 41.7868 231.421 43.2063 231.421 44.9574C231.421 46.7085 232.744 48.128 234.375 48.128Z" fill="#6C63FF"/>
<path d="M397.56 224.089H369.449V221.915C369.449 221.801 369.407 221.691 369.332 221.611C369.256 221.53 369.154 221.484 369.048 221.484H359.41C359.303 221.484 359.201 221.53 359.126 221.611C359.05 221.691 359.008 221.801 359.008 221.915V224.089H352.985V221.915C352.985 221.801 352.942 221.691 352.867 221.611C352.792 221.53 352.689 221.484 352.583 221.484H342.945C342.838 221.484 342.736 221.53 342.661 221.611C342.585 221.691 342.543 221.801 342.543 221.915V224.089H336.52V221.915C336.52 221.801 336.477 221.691 336.402 221.611C336.327 221.53 336.225 221.484 336.118 221.484H326.48C326.374 221.484 326.271 221.53 326.196 221.611C326.121 221.691 326.078 221.801 326.078 221.915V224.089H320.055V221.915C320.055 221.801 320.013 221.691 319.937 221.611C319.862 221.53 319.76 221.484 319.653 221.484H310.016C309.909 221.484 309.807 221.53 309.732 221.611C309.656 221.691 309.614 221.801 309.614 221.915V224.089H303.59V221.915C303.59 221.801 303.548 221.691 303.472 221.611C303.397 221.53 303.295 221.484 303.188 221.484H293.551C293.444 221.484 293.342 221.53 293.267 221.611C293.191 221.691 293.149 221.801 293.149 221.915V224.089H287.125V221.915C287.125 221.801 287.083 221.691 287.008 221.611C286.932 221.53 286.83 221.484 286.724 221.484H277.088C276.981 221.484 276.879 221.53 276.804 221.611C276.728 221.691 276.686 221.801 276.686 221.915V224.089H270.66V221.915C270.66 221.801 270.618 221.691 270.543 221.611C270.467 221.53 270.365 221.484 270.259 221.484H194.762C194.655 221.484 194.553 221.53 194.478 221.611C194.403 221.691 194.36 221.801 194.36 221.915V224.089H188.337V221.915C188.337 221.801 188.294 221.691 188.219 221.611C188.144 221.53 188.042 221.484 187.935 221.484H178.297C178.191 221.484 178.088 221.53 178.013 221.611C177.938 221.691 177.895 221.801 177.895 221.915V224.089H171.872V221.915C171.872 221.801 171.83 221.691 171.754 221.611C171.679 221.53 171.577 221.484 171.47 221.484H161.833C161.726 221.484 161.624 221.53 161.549 221.611C161.473 221.691 161.431 221.801 161.431 221.915V224.089H155.407V221.915C155.407 221.801 155.365 221.691 155.289 221.611C155.214 221.53 155.112 221.484 155.005 221.484H145.368C145.261 221.484 145.159 221.53 145.084 221.611C145.009 221.691 144.966 221.801 144.966 221.915V224.089H138.944V221.915C138.944 221.801 138.901 221.691 138.826 221.611C138.751 221.53 138.649 221.484 138.542 221.484H128.903C128.797 221.484 128.694 221.53 128.619 221.611C128.544 221.691 128.501 221.801 128.501 221.915V224.089H122.478V221.915C122.478 221.801 122.436 221.691 122.36 221.611C122.285 221.53 122.183 221.484 122.076 221.484H112.438C112.332 221.484 112.23 221.53 112.154 221.611C112.079 221.691 112.037 221.801 112.037 221.915V224.089H106.013V221.915C106.013 221.801 105.971 221.691 105.895 221.611C105.82 221.53 105.718 221.484 105.611 221.484H95.9716C95.8651 221.484 95.7629 221.53 95.6876 221.611C95.6122 221.691 95.5699 221.801 95.5699 221.915V224.089H77.0992C74.5431 224.089 72.0917 225.179 70.2842 227.119C68.4767 229.059 67.4613 231.689 67.4613 234.433V239.11C67.4613 241.853 68.4767 244.484 70.2842 246.423C72.0917 248.363 74.5431 249.453 77.0992 249.453H397.56C400.116 249.453 402.567 248.363 404.375 246.424C406.182 244.484 407.198 241.853 407.198 239.11V234.433C407.198 231.69 406.182 229.059 404.375 227.119C402.567 225.18 400.116 224.09 397.56 224.09V224.089Z" fill="#3F3D56"/>
<path d="M292.977 72.6763H176.365V204.23H292.977V72.6763Z" fill="#E6E6E6"/>
<path d="M488 249.014H0.891296V249.999H488V249.014Z" fill="#E6E6E6"/>
<path d="M440.692 214.591C447.293 222.191 447.634 233.363 447.634 233.363C447.634 233.363 437.274 232.211 430.674 224.611C424.074 217.01 423.733 205.838 423.733 205.838C423.733 205.838 434.092 206.99 440.692 214.591Z" fill="#6C63FF"/>
<path d="M461.47 226.455C454.388 233.538 443.978 233.904 443.978 233.904C443.978 233.904 445.052 222.786 452.134 215.703C459.216 208.62 469.626 208.254 469.626 208.254C469.626 208.254 468.553 219.372 461.47 226.455Z" fill="#6C63FF"/>
<path d="M459.71 249.014H433.661C433.161 249.014 432.671 248.863 432.248 248.578C431.824 248.294 431.483 247.887 431.265 247.405L425.594 234.893C425.396 234.458 425.304 233.975 425.328 233.49C425.352 233.006 425.49 232.536 425.73 232.125C425.969 231.714 426.302 231.375 426.698 231.14C427.093 230.906 427.538 230.783 427.99 230.783H465.382C465.834 230.783 466.278 230.906 466.674 231.14C467.069 231.375 467.402 231.714 467.642 232.125C467.881 232.536 468.02 233.006 468.043 233.49C468.067 233.975 467.976 234.458 467.778 234.893L462.106 247.405C461.888 247.888 461.547 248.295 461.124 248.579C460.7 248.863 460.21 249.014 459.71 249.014L459.71 249.014Z" fill="#E5E5E5"/>
<path d="M28.8768 214.591C35.4769 222.191 35.818 233.363 35.818 233.363C35.818 233.363 25.4584 232.211 18.8583 224.611C12.2582 217.01 11.9171 205.838 11.9171 205.838C11.9171 205.838 22.2768 206.99 28.8768 214.591Z" fill="#E5E5E5"/>
<path d="M43.7624 249.014H17.7133C17.2135 249.014 16.7237 248.863 16.3 248.578C15.8762 248.294 15.5357 247.887 15.3172 247.405L9.64593 234.893C9.44789 234.458 9.35646 233.975 9.38025 233.49C9.40405 233.006 9.54229 232.536 9.78195 232.125C10.0216 231.714 10.3548 231.375 10.7502 231.14C11.1456 230.906 11.5901 230.783 12.042 230.783H49.4341C49.886 230.783 50.3305 230.906 50.7259 231.14C51.1213 231.375 51.4545 231.714 51.6942 232.125C51.9338 232.536 52.0721 233.006 52.0958 233.49C52.1196 233.975 52.0282 234.458 51.8302 234.893L46.1589 247.405C45.9404 247.888 45.5999 248.295 45.1761 248.579C44.7524 248.863 44.2626 249.014 43.7628 249.014L43.7624 249.014Z" fill="#E5E5E5"/>
<path d="M248.741 109.917C257.3 109.917 264.239 102.47 264.239 93.2844C264.239 84.0986 257.3 76.652 248.741 76.652C240.182 76.652 233.243 84.0986 233.243 93.2844C233.243 102.47 240.182 109.917 248.741 109.917Z" fill="#A0616A"/>
<path d="M213.082 204.501L223.091 136.883C223.623 133.288 224.862 129.856 226.727 126.814C228.591 123.773 231.037 121.193 233.903 119.246C236.769 117.298 239.988 116.028 243.347 115.52C246.705 115.011 250.126 115.276 253.382 116.297C259.075 118.064 263.949 122.045 267.053 127.462C270.156 132.88 271.267 139.344 270.167 145.594L259.7 205.98L213.082 204.501Z" fill="#6C63FF"/>
<path d="M253.02 216.6C253.794 216.051 254.446 215.327 254.932 214.478C255.417 213.63 255.722 212.677 255.828 211.688C255.933 210.699 255.834 209.697 255.54 208.754C255.245 207.81 254.761 206.946 254.122 206.225L264.468 184.724L252.816 186.058L244.778 206.272C243.724 207.506 243.128 209.111 243.101 210.784C243.075 212.457 243.621 214.083 244.635 215.354C245.649 216.626 247.062 217.454 248.607 217.684C250.152 217.913 251.721 217.528 253.019 216.6L253.02 216.6Z" fill="#A0616A"/>
<path d="M255.235 202.433C254.663 202.346 254.129 202.074 253.704 201.653L249.746 197.728C249.318 197.302 249.023 196.745 248.9 196.133C248.777 195.521 248.832 194.883 249.057 194.305L256.969 174.181L255.846 134.416C256.174 131.837 257.443 129.502 259.375 127.927C261.307 126.352 263.742 125.664 266.146 126.016C268.55 126.368 270.725 127.731 272.192 129.804C273.66 131.877 274.301 134.49 273.973 137.07L275.892 162.067C276.475 169.653 274.471 177.209 270.252 183.328L257.915 201.228C257.677 201.572 257.375 201.858 257.028 202.069C256.681 202.279 256.296 202.409 255.899 202.449C255.678 202.472 255.455 202.466 255.235 202.433Z" fill="#6C63FF"/>
<path d="M159.493 84.2225C159.662 85.2013 160.028 86.1286 160.567 86.9388C161.106 87.7491 161.804 88.4227 162.612 88.9123C163.419 89.4018 164.317 89.6953 165.242 89.7721C166.167 89.849 167.096 89.7073 167.965 89.357L182.38 107.965L185.778 95.9298L171.568 80.1044C170.919 78.5829 169.774 77.3687 168.349 76.691C166.924 76.0132 165.317 75.9188 163.831 76.4255C162.346 76.9322 161.084 78.005 160.285 79.4414C159.486 80.8778 159.204 82.5785 159.493 84.2225H159.493Z" fill="#A0616A"/>
<path d="M170.785 91.9353C171.083 91.4036 171.524 90.9819 172.051 90.7262L176.963 88.345C177.496 88.0885 178.089 88.0136 178.662 88.1306C179.235 88.2475 179.761 88.5506 180.169 88.9988L194.352 104.664L228.91 119.058C229.944 119.716 230.846 120.586 231.566 121.619C232.286 122.651 232.81 123.826 233.107 125.076C233.404 126.326 233.468 127.626 233.297 128.902C233.125 130.179 232.721 131.407 232.107 132.515C231.493 133.624 230.682 134.592 229.719 135.364C228.756 136.136 227.662 136.697 226.497 137.015C225.332 137.333 224.121 137.401 222.931 137.216C221.742 137.032 220.598 136.597 219.565 135.937L197.369 128.087C190.632 125.706 184.93 120.779 181.324 114.224L170.776 95.0527C170.573 94.684 170.445 94.2737 170.4 93.8484C170.355 93.4231 170.394 92.9924 170.514 92.5843C170.581 92.3573 170.672 92.1397 170.787 91.9358L170.785 91.9353Z" fill="#6C63FF"/>
<path opacity="0.1" d="M261.312 150.958L260.681 172.628L249.057 194.307L258.763 170.149L261.312 150.958Z" fill="black"/>
<path d="M238.245 84.9478C239.844 86.9783 242.549 87.5508 245.045 87.7858C250.113 88.2627 257.482 87.4902 262.435 86.2618C262.789 89.9389 261.825 93.9033 263.843 96.928C264.789 93.2661 265.339 89.4995 265.482 85.7026C265.543 84.0767 265.519 82.3896 264.903 80.8947C264.286 79.3999 262.942 78.1311 261.393 78.1178C262.543 77.1812 263.891 76.5628 265.317 76.3175L260.414 73.6731L261.673 72.2856L252.796 71.7027L255.367 69.9497C251.497 69.3796 247.582 69.2474 243.687 69.5555C241.878 69.6984 239.986 69.9719 238.521 71.0967C237.055 72.2216 236.208 74.457 237.118 76.1086C235.979 76.3093 234.907 76.8188 234.002 77.5889C233.098 78.359 232.392 79.3641 231.951 80.509C231.297 82.2867 231.357 84.2614 231.559 86.1559C231.893 89.1858 232.549 92.1647 233.514 95.0346" fill="#2F2E41"/>
<path d="M304.499 43.281L163.279 78.2707C162.586 78.4416 161.858 78.3103 161.254 77.9056C160.651 77.5009 160.221 76.8559 160.061 76.1121L151.973 38.5173C151.814 37.773 151.936 36.9913 152.313 36.3437C152.69 35.6961 153.291 35.2355 153.985 35.0628L295.204 0.0731494C295.897 -0.0977454 296.626 0.0335449 297.229 0.438217C297.832 0.842888 298.262 1.4879 298.423 2.23177L306.51 39.8266C306.669 40.5708 306.547 41.3525 306.17 42.0001C305.793 42.6477 305.192 43.1084 304.499 43.281Z" fill="white"/>
<path d="M304.499 43.281L163.279 78.2707C162.586 78.4416 161.858 78.3103 161.254 77.9056C160.651 77.5009 160.221 76.8559 160.061 76.1121L151.973 38.5173C151.814 37.773 151.936 36.9913 152.313 36.3437C152.69 35.6961 153.291 35.2355 153.985 35.0628L295.204 0.0731494C295.897 -0.0977454 296.626 0.0335449 297.229 0.438217C297.832 0.842888 298.262 1.4879 298.423 2.23177L306.51 39.8266C306.669 40.5708 306.547 41.3525 306.17 42.0001C305.793 42.6477 305.192 43.1084 304.499 43.281ZM154.226 36.1857C153.81 36.2893 153.449 36.5657 153.223 36.9543C152.997 37.3429 152.924 37.812 153.019 38.2586L161.107 75.8534C161.203 76.2999 161.46 76.687 161.823 76.9299C162.185 77.1727 162.622 77.2514 163.038 77.1487L304.257 42.1591C304.673 42.0556 305.034 41.7792 305.26 41.3905C305.487 41.0019 305.56 40.5328 305.464 40.0861L297.377 2.49088C297.28 2.04442 297.023 1.65726 296.661 1.41441C296.299 1.17155 295.861 1.09283 295.445 1.19554L154.226 36.1857Z" fill="#E6E6E6"/>
<path d="M203.228 36.0695C202.994 36.1268 202.774 36.2328 202.579 36.3816C202.384 36.5303 202.218 36.7188 202.091 36.9364C201.963 37.154 201.877 37.3963 201.837 37.6496C201.797 37.9028 201.804 38.1621 201.858 38.4125C201.911 38.6628 202.01 38.8995 202.149 39.1088C202.287 39.3182 202.463 39.4962 202.666 39.6327C202.869 39.7691 203.095 39.8614 203.331 39.9041C203.567 39.9469 203.808 39.9394 204.041 39.8819L204.048 39.8804L287.748 19.1421C288.218 19.0248 288.626 18.712 288.881 18.2724C289.137 17.8328 289.219 17.3023 289.111 16.7975C289.002 16.2926 288.711 15.8547 288.302 15.5798C287.893 15.3049 287.399 15.2155 286.928 15.3312L203.228 36.0695Z" fill="#E6E6E6"/>
<path d="M205.687 47.5027C205.454 47.5599 205.233 47.666 205.038 47.8147C204.843 47.9635 204.677 48.152 204.55 48.3696C204.423 48.5872 204.337 48.8295 204.297 49.0828C204.257 49.336 204.264 49.5953 204.317 49.8456C204.371 50.096 204.47 50.3327 204.608 50.542C204.747 50.7514 204.923 50.9294 205.125 51.0658C205.328 51.2023 205.554 51.2945 205.79 51.3373C206.026 51.3801 206.268 51.3725 206.501 51.3151L206.507 51.3136L242.524 42.3899C242.994 42.2739 243.403 41.962 243.66 41.5227C243.917 41.0834 244 40.5526 243.892 40.0472C243.784 39.5418 243.494 39.103 243.085 38.8274C242.675 38.5517 242.181 38.4619 241.71 38.5774L241.704 38.579L205.687 47.5027Z" fill="#E6E6E6"/>
<path d="M180.346 61.4093C186.384 61.4093 191.279 56.1561 191.279 49.6759C191.279 43.1957 186.384 37.9425 180.346 37.9425C174.308 37.9425 169.413 43.1957 169.413 49.6759C169.413 56.1561 174.308 61.4093 180.346 61.4093Z" fill="#6C63FF"/>
<path d="M180.038 56.4447C179.681 56.5339 179.305 56.4959 178.969 56.3363L178.948 56.3263L174.549 54.183C174.345 54.0837 174.161 53.9422 174.008 53.7664C173.855 53.5907 173.735 53.3843 173.656 53.159C173.577 52.9337 173.541 52.6939 173.548 52.4534C173.556 52.2129 173.608 51.9763 173.7 51.7573C173.793 51.5382 173.925 51.3409 174.089 51.1767C174.253 51.0125 174.446 50.8846 174.656 50.8003C174.866 50.716 175.089 50.6769 175.313 50.6854C175.538 50.6939 175.758 50.7497 175.962 50.8496L178.813 52.2424L182.812 42.8119C182.999 42.3704 183.342 42.0268 183.765 41.8566C184.189 41.6865 184.657 41.7038 185.069 41.9047L185.045 41.9663L185.07 41.9044C185.481 42.1058 185.801 42.4741 185.96 42.9284C186.118 43.3827 186.102 43.8859 185.915 44.3275L181.212 55.4212C181.103 55.6768 180.94 55.902 180.737 56.0793C180.534 56.2566 180.295 56.3813 180.04 56.4438L180.038 56.4447Z" fill="white"/>
</svg>
